<svg xmlns="http://www.w3.org/2000/svg" xmlns:xlink="http://www.w3.org/1999/xlink" xmlns:lucid="lucid" width="1980" height="1511"><g transform="translate(2060 11)" lucid:page-tab-id="0_0"><path d="M-818 36h712c3.3 0 6 2.7 6 6v1432c0 3.3-2.7 6-6 6h-1928c-3.3 0-6-2.7-6-6V16c0-3.3 2.7-6 6-6h1152c3.3 0 8.45 1.1 11.48 2.45zm-1222 0h1222" stroke="#5e5e5e" stroke-width="3" fill="#ffeca9"/><use xlink:href="#a" transform="matrix(1,0,0,1,-2032,10) translate(0 17.77777777777778)"/><path d="M-472 244.58h246c3.3 0 6 2.7 6 6v262c0 3.32-2.7 6-6 6h-668c-3.3 0-6-2.68-6-6v-288c0-3.3 2.7-6 6-6h396c3.3 0 7.64 2.13 9.66 4.76zm-428 0h428" stroke="#5e5e5e" stroke-width="3" fill="#fff"/><use xlink:href="#b" transform="matrix(1,0,0,1,-892,218.58267716535443) translate(0 17.77777777777778)"/><path d="M-1233 304.58h127c3.3 0 6 2.7 6 6v202c0 3.32-2.7 6-6 6h-348c-3.3 0-6-2.68-6-6v-228c0-3.3 2.7-6 6-6h204c3.3 0 7.05 2.48 8.34 5.53zm-227 0h227" stroke="#5e5e5e" stroke-width="3" fill="#fff"/><use xlink:href="#c" transform="matrix(1,0,0,1,-1452,278.5826771653544) translate(0 17.77777777777778)"/><use xlink:href="#d" transform="matrix(1,0,0,1,-1448,312.5826771653544) translate(0 103.44444444444446)"/><path d="M-1233 666h127c3.3 0 6 2.7 6 6v202c0 3.3-2.7 6-6 6h-348c-3.3 0-6-2.7-6-6V646c0-3.3 2.7-6 6-6h204c3.3 0 7.05 2.47 8.34 5.53zm-227 0h227" stroke="#5e5e5e" stroke-width="3" fill="#fff"/><use xlink:href="#e" transform="matrix(1,0,0,1,-1452,640) translate(0 17.77777777777778)"/><use xlink:href="#d" transform="matrix(1,0,0,1,-1448,674) translate(0 103.44444444444446)"/><path d="M-1753 666h127c3.3 0 6 2.7 6 6v202c0 3.3-2.7 6-6 6h-348c-3.3 0-6-2.7-6-6V646c0-3.3 2.7-6 6-6h204c3.3 0 7.05 2.47 8.34 5.53zm-227 0h227" stroke="#5e5e5e" stroke-width="3" fill="#fff"/><use xlink:href="#f" transform="matrix(1,0,0,1,-1972,640) translate(0 17.77777777777778)"/><use xlink:href="#d" transform="matrix(1,0,0,1,-1968,674) translate(0 103.44444444444446)"/><path d="M-1753 946h127c3.3 0 6 2.7 6 6v202c0 3.3-2.7 6-6 6h-348c-3.3 0-6-2.7-6-6V926c0-3.3 2.7-6 6-6h204c3.3 0 7.05 2.47 8.34 5.53zm-227 0h227" stroke="#5e5e5e" stroke-width="3" fill="#fff"/><use xlink:href="#g" transform="matrix(1,0,0,1,-1972,920) translate(0 17.77777777777778)"/><use xlink:href="#d" transform="matrix(1,0,0,1,-1968,954) translate(0 103.44444444444446)"/><path d="M-1753 1226h127c3.3 0 6 2.7 6 6v202c0 3.3-2.7 6-6 6h-348c-3.3 0-6-2.7-6-6v-228c0-3.3 2.7-6 6-6h204c3.3 0 7.05 2.47 8.34 5.53zm-227 0h227" stroke="#5e5e5e" stroke-width="3" fill="#fff"/><use xlink:href="#h" transform="matrix(1,0,0,1,-1972,1200) translate(0 17.77777777777778)"/><use xlink:href="#d" transform="matrix(1,0,0,1,-1968,1234) translate(0 103.44444444444446)"/><path d="M-673 567.42h127c3.3 0 6 2.68 6 6v202c0 3.3-2.7 6-6 6h-348c-3.3 0-6-2.7-6-6v-228c0-3.32 2.7-6 6-6h204c3.3 0 7.05 2.47 8.34 5.52zm-227 0h227" stroke="#5e5e5e" stroke-width="3" fill="#fff"/><use xlink:href="#i" transform="matrix(1,0,0,1,-892,541.4173228346456) translate(0 17.77777777777778)"/><use xlink:href="#d" transform="matrix(1,0,0,1,-888,575.4173228346456) translate(0 103.44444444444446)"/><path d="M-754 346h68c3.3 0 6 2.7 6 6v122c0 3.3-2.7 6-6 6h-188c-3.3 0-6-2.7-6-6V326c0-3.3 2.7-6 6-6h108c3.3 0 6.6 2.62 7.35 5.85zm-126 0h126" stroke="#5e5e5e" stroke-width="3" fill="#fff"/><use xlink:href="#j" transform="matrix(1,0,0,1,-872,319.9999999999999) translate(0 17.77777777777778)"/><path d="M-534 346h68c3.3 0 6 2.7 6 6v122c0 3.3-2.7 6-6 6h-188c-3.3 0-6-2.7-6-6V326c0-3.3 2.7-6 6-6h108c3.3 0 6.6 2.62 7.35 5.85zm-126 0h126" stroke="#5e5e5e" stroke-width="3" fill="#fff"/><use xlink:href="#k" transform="matrix(1,0,0,1,-652,319.9999999999999) translate(0 17.77777777777778)"/><path d="M-673 830.25h127c3.3 0 6 2.7 6 6v202c0 3.32-2.7 6-6 6h-348c-3.3 0-6-2.68-6-6v-228c0-3.3 2.7-6 6-6h204c3.3 0 7.05 2.48 8.34 5.53zm-227 0h227" stroke="#5e5e5e" stroke-width="3" fill="#fff"/><use xlink:href="#l" transform="matrix(1,0,0,1,-892,804.2519685039367) translate(0 17.77777777777778)"/><use xlink:href="#d" transform="matrix(1,0,0,1,-888,838.2519685039367) translate(0 103.44444444444446)"/><path d="M-1233 1087.42h127c3.3 0 6 2.68 6 6v202c0 3.3-2.7 6-6 6h-348c-3.3 0-6-2.7-6-6v-228c0-3.32 2.7-6 6-6h204c3.3 0 7.05 2.47 8.34 5.52zm-227 0h227" stroke="#5e5e5e" stroke-width="3" fill="#fff"/><use xlink:href="#m" transform="matrix(1,0,0,1,-1452,1061.4173228346456) translate(0 17.77777777777778)"/><use xlink:href="#d" transform="matrix(1,0,0,1,-1448,1095.4173228346456) translate(0 103.44444444444446)"/><path d="M-1100 93.75c0-7.6-40.3-13.75-90-13.75s-90 6.16-90 13.75V179c0 4.84 40.3 11 90 11s90-6.16 90-13.75z" stroke="#5e5e5e" stroke-width="3" fill="#fff"/><path d="M-1100 93.75c0 7.6-40.3 13.75-90 13.75s-90-6.16-90-13.75m180 10.45c0 4.84-40.3 11-90 11s-90-6.16-90-13.75m180 10.45c0 4.84-40.3 11-90 11s-90-6.16-90-13.75" stroke="#5e5e5e" stroke-width="3" fill="#fff"/><use xlink:href="#n" transform="matrix(1,0,0,1,-1280,120) translate(9.753086419753089 34.44444444444444)"/><use xlink:href="#o" transform="matrix(1,0,0,1,-1280,120) translate(78.88888888888889 34.44444444444444)"/><use xlink:href="#p" transform="matrix(1,0,0,1,-1280,120) translate(109.75308641975309 34.44444444444444)"/><path d="M-1187.88 663.5h-2v-10.4h2zm0-20.82h-2v-20.82h2zm0-31.23h-2v-8.5h2zm0-31.23h-2V559.4h2zm0-31.23h-2v-10.42h2zM-1184.24 537.58h-9.27l4.63-14.26z" fill="#5e5e5e"/><path d="M-1182.86 538.58h-12.03l6.03-18.5zm-9.27-2h6.5l-3.24-10.03zM-1187.88 664.5h-2v-1.03h2z" fill="#5e5e5e"/><use xlink:href="#q" transform="matrix(1,0,0,1,-1244.1836419753085,581.6246719160106) translate(0 14.222222222222223)"/><use xlink:href="#r" transform="matrix(1,0,0,1,-1244.1836419753085,581.6246719160106) translate(25.679012345679016 14.222222222222223)"/><use xlink:href="#s" transform="matrix(1,0,0,1,-1244.1836419753085,581.6246719160106) translate(89.87654320987656 14.222222222222223)"/><path d="M-1097.5 416.2h10.83m10.83 0h21.65m10.84 0h21.65m10.82 0h10.83l.04-.02v-.07H-991.06m8.9 0h17.75m8.9 0h17.75m8.88 0h8.9" stroke="#5e5e5e" stroke-width="2" fill="none"/><path d="M-1097.47 417.2h-1.03v-2h1.03z" fill="#5e5e5e"/><path d="M-904.74 416.1l-14.26 4.63v-9.27z" stroke="#5e5e5e" stroke-width="2" fill="#5e5e5e"/><use xlink:href="#q" transform="matrix(1,0,0,1,-1053.2617155139787,390.7582785242582) translate(0 14.222222222222223)"/><use xlink:href="#t" transform="matrix(1,0,0,1,-1053.2617155139787,390.7582785242582) translate(25.679012345679016 14.222222222222223)"/><use xlink:href="#s" transform="matrix(1,0,0,1,-1053.2617155139787,390.7582785242582) translate(85.77777777777779 14.222222222222223)"/><path d="M-1189 302.08h-2v-10.23h2zm0-20.46h-2v-20.46h2zm0-61.4h-2V210h2z" fill="#5e5e5e"/><path d="M-1189 303.08h-2v-1.02h2zM-1185.36 209h-9.28l4.64-14.26z" fill="#5e5e5e"/><path d="M-1184 210h-12l6-18.5zm-9.26-2h6.52l-3.26-10.03z" fill="#5e5e5e"/><use xlink:href="#q" transform="matrix(1,0,0,1,-1230.962962962963,229.99463366930345) translate(0 14.222222222222223)"/><use xlink:href="#u" transform="matrix(1,0,0,1,-1230.962962962963,229.99463366930345) translate(25.679012345679016 14.222222222222223)"/><use xlink:href="#s" transform="matrix(1,0,0,1,-1230.962962962963,229.99463366930345) translate(61.18518518518519 14.222222222222223)"/><path d="M-1087.33 779.56h-10.17v-2h10.17zm30.5 0h-20.34v-2h20.34zm30.5 0h-20.34v-2h20.34zm27.33-6.87l-.92 3.4-2.53 2.54-3.42.92h-10.3v-2h10.04l2.64-.7 1.8-1.8.7-2.63v-8.63h2zm0-17.66h-2V737.5h2zm0-52.57h-2v-17.53h2zm17.33-40.05h-12.2l-2.64.7-1.8 1.8-.7 2.63v8.63h-2v-8.9l.92-3.4 2.53-2.54 3.42-.92h12.46zm37 0h-24.66v-2h24.66zm24.67 0h-12.33v-2H-920z" fill="#5e5e5e"/><path d="M-1097.47 779.56h-1.03v-2h1.03zM-904.74 661.42l-14.26 4.63v-9.27z" fill="#5e5e5e"/><path d="M-901.5 661.42l-18.5 6v-12zm-16.5 3.26l10.03-3.26-10.03-3.26z" fill="#5e5e5e"/><use xlink:href="#q" transform="matrix(1,0,0,1,-1053.2592592592594,709.3228713508407) translate(0 14.222222222222223)"/><use xlink:href="#t" transform="matrix(1,0,0,1,-1053.2592592592594,709.3228713508407) translate(25.679012345679016 14.222222222222223)"/><use xlink:href="#s" transform="matrix(1,0,0,1,-1053.2592592592594,709.3228713508407) translate(85.77777777777779 14.222222222222223)"/><path d="M-999 918.12l.7 2.64 1.8 1.78 2.63.7h12.2v2h-12.46l-3.42-.9-2.53-2.54-.92-3.42V907.1h2zm54.33 7.13h-24.66v-2h24.66zm24.67 0h-12.33v-2H-920zm-79-29.28h-2v-6.2h2zm0-33.42h-2v-22.28h2zm0-33.42h-2v-22.3h2zm-3.45-50.64l2.53 2.5.92 3.43v11.27h-2v-11l-.7-2.65-1.8-1.77-2.63-.72h-10.04v-2h10.3zm-84.88 1.06h-10.17v-2h10.17zm30.5 0h-20.34v-2h20.34zm30.5 0h-20.34v-2h20.34z" fill="#5e5e5e"/><path d="M-1097.47 779.56h-1.03v-2h1.03zM-904.74 924.25L-919 928.9v-9.28z" fill="#5e5e5e"/><path d="M-901.5 924.25l-18.5 6v-12zm-16.5 3.26l10.03-3.25L-918 921z" fill="#5e5e5e"/><use xlink:href="#q" transform="matrix(1,0,0,1,-1053.2592592592594,868.4408957130194) translate(0 14.222222222222223)"/><use xlink:href="#t" transform="matrix(1,0,0,1,-1053.2592592592594,868.4408957130194) translate(25.679012345679016 14.222222222222223)"/><use xlink:href="#s" transform="matrix(1,0,0,1,-1053.2592592592594,868.4408957130194) translate(85.77777777777779 14.222222222222223)"/><path d="M-1568.82 761h-48.68v-2h48.68zm88.82 0h-6.9v-2h6.9z" fill="#5e5e5e"/><path d="M-1617.47 761h-1.03v-2h1.03zM-1464.74 760l-14.26 4.64v-9.28z" fill="#5e5e5e"/><path d="M-1461.5 760l-18.5 6v-12zm-16.5 3.26l10.03-3.26-10.03-3.26z" fill="#5e5e5e"/><use xlink:href="#q" transform="matrix(1,0,0,1,-1568.8243726424153,749.3333333333334) translate(0 14.222222222222223)"/><use xlink:href="#u" transform="matrix(1,0,0,1,-1568.8243726424153,749.3333333333334) translate(25.679012345679016 14.222222222222223)"/><use xlink:href="#s" transform="matrix(1,0,0,1,-1568.8243726424153,749.3333333333334) translate(61.18518518518519 14.222222222222223)"/><path d="M-1539 1175.28l.7 2.65 1.8 1.77 2.63.72h8.87v2h-9.13l-3.42-.93-2.53-2.54-.92-3.4v-10.93h2zm41 7.14h-18v-2h18zm18 0h-9v-2h9zm-59-28.57h-2v-21.57h2zm0-32.36h-2v-.12h2zm0-21.46h-2v-.12h2zm0-10.9h-2v-21.57h2zm-3.45-49.22l2.53 2.53.92 3.42v10.9h-2v-10.64l-.7-2.64-1.8-1.8-2.63-.7h-11.8v-2h12.06zm-63.13 1.08h-11.92v-2h11.92zm35.75 0h-23.84v-2h23.84z" fill="#5e5e5e"/><path d="M-1617.47 1041h-1.03v-2h1.03zM-1464.74 1181.42l-14.26 4.63v-9.27z" fill="#5e5e5e"/><path d="M-1461.5 1181.42l-18.5 6v-12zm-16.5 3.26l10.03-3.26-10.03-3.26z" fill="#5e5e5e"/><use xlink:href="#q" transform="matrix(1,0,0,1,-1593.2592592592594,1100.041994750656) translate(0 14.222222222222223)"/><use xlink:href="#t" transform="matrix(1,0,0,1,-1593.2592592592594,1100.041994750656) translate(25.679012345679016 14.222222222222223)"/><use xlink:href="#s" transform="matrix(1,0,0,1,-1593.2592592592594,1100.041994750656) translate(85.77777777777779 14.222222222222223)"/><path d="M-1605.58 1321h-11.92v-2h11.92zm35.75 0h-23.84v-2h23.84zm30.83-6.87l-.92 3.42-2.53 2.53-3.42.92h-12.05v-2h11.8l2.63-.7 1.8-1.8.7-2.63v-10.42h2zm0-21.23h-2v-21.1h2zm0-63.3h-2v-21.1h2zm14-47.18h-8.87l-2.64.7-1.8 1.8-.7 2.63v10.42h-2v-10.7l.92-3.4 2.53-2.53 3.42-.92h9.13zm27 0h-18v-2h18zm18 0h-9v-2h9z" fill="#5e5e5e"/><path d="M-1617.47 1321h-1.03v-2h1.03zM-1464.74 1181.42l-14.26 4.63v-9.27z" fill="#5e5e5e"/><path d="M-1461.5 1181.42l-18.5 6v-12zm-16.5 3.26l10.03-3.26-10.03-3.26z" fill="#5e5e5e"/><g><use xlink:href="#q" transform="matrix(1,0,0,1,-1593.2592592592594,1240.041994750656) translate(0 14.222222222222223)"/><use xlink:href="#t" transform="matrix(1,0,0,1,-1593.2592592592594,1240.041994750656) translate(25.679012345679016 14.222222222222223)"/><use xlink:href="#s" transform="matrix(1,0,0,1,-1593.2592592592594,1240.041994750656) translate(85.77777777777779 14.222222222222223)"/></g><path d="M-1279 1041.42h-2v-10.6h2zm0-21.2h-2v-21.18h2zm0-31.78h-2v-7.06h2zm0-31.78h-2v-21.2h2zm0-31.78h-2v-21.2h2zm0-31.8h-2V882.5h2z" fill="#5e5e5e"/><path d="M-1279 882.53h-2v-1.03h2zM-1280 1056.68l-4.64-14.26h9.28z" fill="#5e5e5e"/><path d="M-1280 1059.92l-6-18.5h12zm-3.26-16.5l3.26 10.03 3.26-10.03z" fill="#5e5e5e"/><g><use xlink:href="#q" transform="matrix(1,0,0,1,-1333.2592592592594,960.0419947506562) translate(0 14.222222222222223)"/><use xlink:href="#t" transform="matrix(1,0,0,1,-1333.2592592592594,960.0419947506562) translate(25.679012345679016 14.222222222222223)"/><use xlink:href="#s" transform="matrix(1,0,0,1,-1333.2592592592594,960.0419947506562) translate(85.77777777777779 14.222222222222223)"/></g><path d="M-1980 289.08c0-3.3 2.7-6 6-6h348c3.3 0 6 2.7 6 6v219c0 3.32-2.7 6-6 6h-348c-3.3 0-6-2.68-6-6z" stroke="#5e5e5e" stroke-width="3" fill="#fff"/><path d="M-1980 325.75h360m-360 94.17h360" stroke="#5e5e5e" stroke-width="3" fill="none"/><g><use xlink:href="#v" transform="matrix(1,0,0,1,-1972,291.0826771653544) translate(101.75308641975309 17.944444444444443)"/></g><g><use xlink:href="#w" transform="matrix(1,0,0,1,-1968,427.9160104986878) translate(0 43.94444444444444)"/><use xlink:href="#x" transform="matrix(1,0,0,1,-1968,427.9160104986878) translate(19.1358024691358 43.94444444444444)"/><use xlink:href="#y" transform="matrix(1,0,0,1,-1968,427.9160104986878) translate(130 43.94444444444444)"/><use xlink:href="#z" transform="matrix(1,0,0,1,-1968,427.9160104986878) translate(259.44444444444446 43.94444444444444)"/></g><path d="M-314 346h68c3.3 0 6 2.7 6 6v122c0 3.3-2.7 6-6 6h-188c-3.3 0-6-2.7-6-6V326c0-3.3 2.7-6 6-6h108c3.3 0 6.6 2.62 7.35 5.85zm-126 0h126" stroke="#5e5e5e" stroke-width="3" fill="#fff"/><g><use xlink:href="#A" transform="matrix(1,0,0,1,-432,319.9999999999999) translate(0 17.77777777777778)"/></g><g><use xlink:href="#B" transform="matrix(1,0,0,1,-428,353.9999999999999) translate(0 63.44444444444444)"/><use xlink:href="#C" transform="matrix(1,0,0,1,-428,353.9999999999999) translate(32.098765432098766 63.44444444444444)"/><use xlink:href="#D" transform="matrix(1,0,0,1,-428,353.9999999999999) translate(117.2222222222222 63.44444444444444)"/></g><defs><path fill="#333" d="M115-194c53 0 69 39 70 98 0 66-23 100-70 100C84 3 66-7 56-30L54 0H23l1-261h32v101c10-23 28-34 59-34zm-8 174c40 0 45-34 45-75 0-40-5-75-45-74-42 0-51 32-51 76 0 43 10 73 51 73" id="E"/><path fill="#333" d="M114-163C36-179 61-72 57 0H25l-1-190h30c1 12-1 29 2 39 6-27 23-49 58-41v29" id="F"/><path fill="#333" d="M33 0v-38h34V0H33" id="G"/><path fill="#333" d="M84 4C-5 8 30-112 23-190h32v120c0 31 7 50 39 49 72-2 45-101 50-169h31l1 190h-30c-1-10 1-25-2-33-11 22-28 36-60 37" id="H"/><path fill="#333" d="M117-194c89-4 53 116 60 194h-32v-121c0-31-8-49-39-48C34-167 62-67 57 0H25l-1-190h30c1 10-1 24 2 32 11-22 29-35 61-36" id="I"/><path fill="#333" d="M24 0v-261h32V0H24" id="J"/><path fill="#333" d="M100-194c63 0 86 42 84 106H49c0 40 14 67 53 68 26 1 43-12 49-29l28 8c-11 28-37 45-77 45C44 4 14-33 15-96c1-61 26-98 85-98zm52 81c6-60-76-77-97-28-3 7-6 17-6 28h103" id="K"/><path fill="#333" d="M24-231v-30h32v30H24zM24 0v-190h32V0H24" id="L"/><path fill="#333" d="M141-36C126-15 110 5 73 4 37 3 15-17 15-53c-1-64 63-63 125-63 3-35-9-54-41-54-24 1-41 7-42 31l-33-3c5-37 33-52 76-52 45 0 72 20 72 64v82c-1 20 7 32 28 27v20c-31 9-61-2-59-35zM48-53c0 20 12 33 32 33 41-3 63-29 60-74-43 2-92-5-92 41" id="M"/><path fill="#333" d="M135-143c-3-34-86-38-87 0 15 53 115 12 119 90S17 21 10-45l28-5c4 36 97 45 98 0-10-56-113-15-118-90-4-57 82-63 122-42 12 7 21 19 24 35" id="N"/><path fill="#333" d="M115-194c55 1 70 41 70 98S169 2 115 4C84 4 66-9 55-30l1 105H24l-1-265h31l2 30c10-21 28-34 59-34zm-8 174c40 0 45-34 45-75s-6-73-45-74c-42 0-51 32-51 76 0 43 10 73 51 73" id="O"/><g id="a"><use transform="matrix(0.06172839506172839,0,0,0.06172839506172839,0,0)" xlink:href="#E"/><use transform="matrix(0.06172839506172839,0,0,0.06172839506172839,12.345679012345679,0)" xlink:href="#F"/><use transform="matrix(0.06172839506172839,0,0,0.06172839506172839,18.45679012345679,0)" xlink:href="#G"/><use transform="matrix(0.06172839506172839,0,0,0.06172839506172839,24.62962962962963,0)" xlink:href="#H"/><use transform="matrix(0.06172839506172839,0,0,0.06172839506172839,36.97530864197531,0)" xlink:href="#I"/><use transform="matrix(0.06172839506172839,0,0,0.06172839506172839,49.32098765432099,0)" xlink:href="#E"/><use transform="matrix(0.06172839506172839,0,0,0.06172839506172839,61.666666666666664,0)" xlink:href="#G"/><use transform="matrix(0.06172839506172839,0,0,0.06172839506172839,67.8395061728395,0)" xlink:href="#J"/><use transform="matrix(0.06172839506172839,0,0,0.06172839506172839,72.71604938271605,0)" xlink:href="#K"/><use transform="matrix(0.06172839506172839,0,0,0.06172839506172839,85.06172839506173,0)" xlink:href="#L"/><use transform="matrix(0.06172839506172839,0,0,0.06172839506172839,89.93827160493828,0)" xlink:href="#J"/><use transform="matrix(0.06172839506172839,0,0,0.06172839506172839,94.81481481481482,0)" xlink:href="#M"/><use transform="matrix(0.06172839506172839,0,0,0.06172839506172839,107.16049382716051,0)" xlink:href="#N"/><use transform="matrix(0.06172839506172839,0,0,0.06172839506172839,118.27160493827162,0)" xlink:href="#G"/><use transform="matrix(0.06172839506172839,0,0,0.06172839506172839,124.44444444444446,0)" xlink:href="#M"/><use transform="matrix(0.06172839506172839,0,0,0.06172839506172839,136.79012345679013,0)" xlink:href="#O"/><use transform="matrix(0.06172839506172839,0,0,0.06172839506172839,149.1358024691358,0)" xlink:href="#L"/></g><path fill="#333" d="M85-194c31 0 48 13 60 33l-1-100h32l1 261h-30c-2-10 0-23-3-31C134-8 116 4 85 4 32 4 16-35 15-94c0-66 23-100 70-100zm9 24c-40 0-46 34-46 75 0 40 6 74 45 74 42 0 51-32 51-76 0-42-9-74-50-73" id="P"/><path fill="#333" d="M100-194c62-1 85 37 85 99 1 63-27 99-86 99S16-35 15-95c0-66 28-99 85-99zM99-20c44 1 53-31 53-75 0-43-8-75-51-75s-53 32-53 75 10 74 51 75" id="Q"/><path fill="#333" d="M210-169c-67 3-38 105-44 169h-31v-121c0-29-5-50-35-48C34-165 62-65 56 0H25l-1-190h30c1 10-1 24 2 32 10-44 99-50 107 0 11-21 27-35 58-36 85-2 47 119 55 194h-31v-121c0-29-5-49-35-48" id="R"/><path fill="#333" d="M59-47c-2 24 18 29 38 22v24C64 9 27 4 27-40v-127H5v-23h24l9-43h21v43h35v23H59v120" id="S"/><g id="b"><use transform="matrix(0.06172839506172839,0,0,0.06172839506172839,0,0)" xlink:href="#P"/><use transform="matrix(0.06172839506172839,0,0,0.06172839506172839,12.345679012345679,0)" xlink:href="#Q"/><use transform="matrix(0.06172839506172839,0,0,0.06172839506172839,24.691358024691358,0)" xlink:href="#R"/><use transform="matrix(0.06172839506172839,0,0,0.06172839506172839,43.148148148148145,0)" xlink:href="#M"/><use transform="matrix(0.06172839506172839,0,0,0.06172839506172839,55.49382716049382,0)" xlink:href="#L"/><use transform="matrix(0.06172839506172839,0,0,0.06172839506172839,60.37037037037037,0)" xlink:href="#I"/><use transform="matrix(0.06172839506172839,0,0,0.06172839506172839,72.71604938271605,0)" xlink:href="#G"/><use transform="matrix(0.06172839506172839,0,0,0.06172839506172839,78.88888888888889,0)" xlink:href="#K"/><use transform="matrix(0.06172839506172839,0,0,0.06172839506172839,91.23456790123457,0)" xlink:href="#I"/><use transform="matrix(0.06172839506172839,0,0,0.06172839506172839,103.58024691358025,0)" xlink:href="#S"/><use transform="matrix(0.06172839506172839,0,0,0.06172839506172839,109.75308641975309,0)" xlink:href="#L"/><use transform="matrix(0.06172839506172839,0,0,0.06172839506172839,114.62962962962963,0)" xlink:href="#S"/><use transform="matrix(0.06172839506172839,0,0,0.06172839506172839,120.80246913580247,0)" xlink:href="#L"/><use transform="matrix(0.06172839506172839,0,0,0.06172839506172839,125.67901234567901,0)" xlink:href="#K"/><use transform="matrix(0.06172839506172839,0,0,0.06172839506172839,138.02469135802468,0)" xlink:href="#N"/></g><g id="c"><use transform="matrix(0.06172839506172839,0,0,0.06172839506172839,0,0)" xlink:href="#F"/><use transform="matrix(0.06172839506172839,0,0,0.06172839506172839,7.345679012345679,0)" xlink:href="#K"/><use transform="matrix(0.06172839506172839,0,0,0.06172839506172839,19.691358024691358,0)" xlink:href="#O"/><use transform="matrix(0.06172839506172839,0,0,0.06172839506172839,32.03703703703704,0)" xlink:href="#Q"/><use transform="matrix(0.06172839506172839,0,0,0.06172839506172839,44.382716049382715,0)" xlink:href="#N"/><use transform="matrix(0.06172839506172839,0,0,0.06172839506172839,55.49382716049382,0)" xlink:href="#L"/><use transform="matrix(0.06172839506172839,0,0,0.06172839506172839,60.37037037037037,0)" xlink:href="#S"/><use transform="matrix(0.06172839506172839,0,0,0.06172839506172839,66.5432098765432,0)" xlink:href="#Q"/><use transform="matrix(0.06172839506172839,0,0,0.06172839506172839,78.88888888888889,0)" xlink:href="#F"/><use transform="matrix(0.06172839506172839,0,0,0.06172839506172839,86.23456790123457,0)" xlink:href="#L"/><use transform="matrix(0.06172839506172839,0,0,0.06172839506172839,91.11111111111111,0)" xlink:href="#K"/><use transform="matrix(0.06172839506172839,0,0,0.06172839506172839,103.4567901234568,0)" xlink:href="#N"/></g><path fill="#333" d="M205 0l-28-72H64L36 0H1l101-248h38L239 0h-34zm-38-99l-47-123c-12 45-31 82-46 123h93" id="T"/><path fill="#333" d="M127-220V0H93v-220H8v-28h204v28h-85" id="U"/><path fill="#333" d="M233-177c-1 41-23 64-60 70L243 0h-38l-65-103H63V0H30v-248c88 3 205-21 203 71zM63-129c60-2 137 13 137-47 0-61-80-42-137-45v92" id="V"/><path fill="#333" d="M33 0v-248h34V0H33" id="W"/><path fill="#333" d="M160-131c35 5 61 23 61 61C221 17 115-2 30 0v-248c76 3 177-17 177 60 0 33-19 50-47 57zm-97-11c50-1 110 9 110-42 0-47-63-36-110-37v79zm0 115c55-2 124 14 124-45 0-56-70-42-124-44v89" id="X"/><path fill="#333" d="M232-93c-1 65-40 97-104 97C67 4 28-28 28-90v-158h33c8 89-33 224 67 224 102 0 64-133 71-224h33v155" id="Y"/><path fill="#333" d="M140-251c81 0 123 46 123 126C263-46 219 4 140 4 59 4 17-45 17-125s42-126 123-126zm0 227c63 0 89-41 89-101s-29-99-89-99c-61 0-89 39-89 99S79-25 140-24" id="Z"/><path fill="#333" d="M185-189c-5-48-123-54-124 2 14 75 158 14 163 119 3 78-121 87-175 55-17-10-28-26-33-46l33-7c5 56 141 63 141-1 0-78-155-14-162-118-5-82 145-84 179-34 5 7 8 16 11 25" id="aa"/><g id="d"><use transform="matrix(0.06172839506172839,0,0,0.06172839506172839,0,0)" xlink:href="#T"/><use transform="matrix(0.06172839506172839,0,0,0.06172839506172839,13.148148148148147,0)" xlink:href="#U"/><use transform="matrix(0.06172839506172839,0,0,0.06172839506172839,26.666666666666664,0)" xlink:href="#V"/><use transform="matrix(0.06172839506172839,0,0,0.06172839506172839,42.654320987654316,0)" xlink:href="#W"/><use transform="matrix(0.06172839506172839,0,0,0.06172839506172839,48.82716049382716,0)" xlink:href="#X"/><use transform="matrix(0.06172839506172839,0,0,0.06172839506172839,63.641975308641975,0)" xlink:href="#Y"/><use transform="matrix(0.06172839506172839,0,0,0.06172839506172839,79.62962962962963,0)" xlink:href="#U"/><use transform="matrix(0.06172839506172839,0,0,0.06172839506172839,92.71604938271605,0)" xlink:href="#Z"/><use transform="matrix(0.06172839506172839,0,0,0.06172839506172839,110,0)" xlink:href="#aa"/></g><path fill="#333" d="M108 0H70L1-190h34L89-25l56-165h34" id="ab"/><path fill="#333" d="M96-169c-40 0-48 33-48 73s9 75 48 75c24 0 41-14 43-38l32 2c-6 37-31 61-74 61-59 0-76-41-82-99-10-93 101-131 147-64 4 7 5 14 7 22l-32 3c-4-21-16-35-41-35" id="ac"/><g id="e"><use transform="matrix(0.06172839506172839,0,0,0.06172839506172839,0,0)" xlink:href="#N"/><use transform="matrix(0.06172839506172839,0,0,0.06172839506172839,11.11111111111111,0)" xlink:href="#K"/><use transform="matrix(0.06172839506172839,0,0,0.06172839506172839,23.45679012345679,0)" xlink:href="#F"/><use transform="matrix(0.06172839506172839,0,0,0.06172839506172839,30.80246913580247,0)" xlink:href="#ab"/><use transform="matrix(0.06172839506172839,0,0,0.06172839506172839,41.91358024691358,0)" xlink:href="#L"/><use transform="matrix(0.06172839506172839,0,0,0.06172839506172839,46.79012345679013,0)" xlink:href="#ac"/><use transform="matrix(0.06172839506172839,0,0,0.06172839506172839,57.90123456790124,0)" xlink:href="#K"/><use transform="matrix(0.06172839506172839,0,0,0.06172839506172839,70.24691358024693,0)" xlink:href="#N"/></g><path fill="#333" d="M206 0h-36l-40-164L89 0H53L-1-190h32L70-26l43-164h34l41 164 42-164h31" id="ad"/><g id="f"><use transform="matrix(0.06172839506172839,0,0,0.06172839506172839,0,0)" xlink:href="#ad"/><use transform="matrix(0.06172839506172839,0,0,0.06172839506172839,15.987654320987653,0)" xlink:href="#K"/><use transform="matrix(0.06172839506172839,0,0,0.06172839506172839,28.333333333333332,0)" xlink:href="#E"/><use transform="matrix(0.06172839506172839,0,0,0.06172839506172839,40.67901234567901,0)" xlink:href="#G"/><use transform="matrix(0.06172839506172839,0,0,0.06172839506172839,46.851851851851855,0)" xlink:href="#F"/><use transform="matrix(0.06172839506172839,0,0,0.06172839506172839,54.19753086419753,0)" xlink:href="#K"/><use transform="matrix(0.06172839506172839,0,0,0.06172839506172839,66.54320987654322,0)" xlink:href="#N"/><use transform="matrix(0.06172839506172839,0,0,0.06172839506172839,77.65432098765433,0)" xlink:href="#Q"/><use transform="matrix(0.06172839506172839,0,0,0.06172839506172839,90.00000000000001,0)" xlink:href="#H"/><use transform="matrix(0.06172839506172839,0,0,0.06172839506172839,102.3456790123457,0)" xlink:href="#F"/><use transform="matrix(0.06172839506172839,0,0,0.06172839506172839,109.69135802469138,0)" xlink:href="#ac"/><use transform="matrix(0.06172839506172839,0,0,0.06172839506172839,120.8024691358025,0)" xlink:href="#K"/><use transform="matrix(0.06172839506172839,0,0,0.06172839506172839,133.14814814814818,0)" xlink:href="#N"/></g><path fill="#333" d="M101-234c-31-9-42 10-38 44h38v23H63V0H32v-167H5v-23h27c-7-52 17-82 69-68v24" id="ae"/><path fill="#333" d="M177-190C167-65 218 103 67 71c-23-6-38-20-44-43l32-5c15 47 100 32 89-28v-30C133-14 115 1 83 1 29 1 15-40 15-95c0-56 16-97 71-98 29-1 48 16 59 35 1-10 0-23 2-32h30zM94-22c36 0 50-32 50-73 0-42-14-75-50-75-39 0-46 34-46 75s6 73 46 73" id="af"/><g id="g"><use transform="matrix(0.06172839506172839,0,0,0.06172839506172839,0,0)" xlink:href="#ac"/><use transform="matrix(0.06172839506172839,0,0,0.06172839506172839,11.11111111111111,0)" xlink:href="#Q"/><use transform="matrix(0.06172839506172839,0,0,0.06172839506172839,23.45679012345679,0)" xlink:href="#I"/><use transform="matrix(0.06172839506172839,0,0,0.06172839506172839,35.80246913580247,0)" xlink:href="#ae"/><use transform="matrix(0.06172839506172839,0,0,0.06172839506172839,41.97530864197531,0)" xlink:href="#L"/><use transform="matrix(0.06172839506172839,0,0,0.06172839506172839,46.851851851851855,0)" xlink:href="#af"/></g><path fill="#333" d="M179-190L93 31C79 59 56 82 12 73V49c39 6 53-20 64-50L1-190h34L92-34l54-156h33" id="ag"/><g id="h"><use transform="matrix(0.06172839506172839,0,0,0.06172839506172839,0,0)" xlink:href="#N"/><use transform="matrix(0.06172839506172839,0,0,0.06172839506172839,11.11111111111111,0)" xlink:href="#K"/><use transform="matrix(0.06172839506172839,0,0,0.06172839506172839,23.45679012345679,0)" xlink:href="#ac"/><use transform="matrix(0.06172839506172839,0,0,0.06172839506172839,34.5679012345679,0)" xlink:href="#H"/><use transform="matrix(0.06172839506172839,0,0,0.06172839506172839,46.913580246913575,0)" xlink:href="#F"/><use transform="matrix(0.06172839506172839,0,0,0.06172839506172839,54.25925925925925,0)" xlink:href="#L"/><use transform="matrix(0.06172839506172839,0,0,0.06172839506172839,59.1358024691358,0)" xlink:href="#S"/><use transform="matrix(0.06172839506172839,0,0,0.06172839506172839,65.30864197530863,0)" xlink:href="#ag"/></g><g id="i"><use transform="matrix(0.06172839506172839,0,0,0.06172839506172839,0,0)" xlink:href="#H"/><use transform="matrix(0.06172839506172839,0,0,0.06172839506172839,12.345679012345679,0)" xlink:href="#S"/><use transform="matrix(0.06172839506172839,0,0,0.06172839506172839,18.51851851851852,0)" xlink:href="#L"/><use transform="matrix(0.06172839506172839,0,0,0.06172839506172839,23.395061728395063,0)" xlink:href="#J"/><use transform="matrix(0.06172839506172839,0,0,0.06172839506172839,28.271604938271608,0)" xlink:href="#N"/></g><g id="j"><use transform="matrix(0.06172839506172839,0,0,0.06172839506172839,0,0)" xlink:href="#R"/><use transform="matrix(0.06172839506172839,0,0,0.06172839506172839,18.456790123456788,0)" xlink:href="#M"/><use transform="matrix(0.06172839506172839,0,0,0.06172839506172839,30.80246913580247,0)" xlink:href="#O"/><use transform="matrix(0.06172839506172839,0,0,0.06172839506172839,43.148148148148145,0)" xlink:href="#O"/><use transform="matrix(0.06172839506172839,0,0,0.06172839506172839,55.49382716049382,0)" xlink:href="#K"/><use transform="matrix(0.06172839506172839,0,0,0.06172839506172839,67.8395061728395,0)" xlink:href="#F"/></g><g id="k"><use transform="matrix(0.06172839506172839,0,0,0.06172839506172839,0,0)" xlink:href="#P"/><use transform="matrix(0.06172839506172839,0,0,0.06172839506172839,12.345679012345679,0)" xlink:href="#S"/><use transform="matrix(0.06172839506172839,0,0,0.06172839506172839,18.51851851851852,0)" xlink:href="#Q"/></g><path fill="#333" d="M141 0L90-78 38 0H4l68-98-65-92h35l48 74 47-74h35l-64 92 68 98h-35" id="ah"/><g id="l"><use transform="matrix(0.06172839506172839,0,0,0.06172839506172839,0,0)" xlink:href="#K"/><use transform="matrix(0.06172839506172839,0,0,0.06172839506172839,12.345679012345679,0)" xlink:href="#ah"/><use transform="matrix(0.06172839506172839,0,0,0.06172839506172839,23.45679012345679,0)" xlink:href="#ac"/><use transform="matrix(0.06172839506172839,0,0,0.06172839506172839,34.5679012345679,0)" xlink:href="#K"/><use transform="matrix(0.06172839506172839,0,0,0.06172839506172839,46.913580246913575,0)" xlink:href="#O"/><use transform="matrix(0.06172839506172839,0,0,0.06172839506172839,59.25925925925925,0)" xlink:href="#S"/><use transform="matrix(0.06172839506172839,0,0,0.06172839506172839,65.43209876543209,0)" xlink:href="#L"/><use transform="matrix(0.06172839506172839,0,0,0.06172839506172839,70.30864197530863,0)" xlink:href="#Q"/><use transform="matrix(0.06172839506172839,0,0,0.06172839506172839,82.65432098765432,0)" xlink:href="#I"/><use transform="matrix(0.06172839506172839,0,0,0.06172839506172839,95,0)" xlink:href="#N"/></g><g id="m"><use transform="matrix(0.06172839506172839,0,0,0.06172839506172839,0,0)" xlink:href="#ac"/><use transform="matrix(0.06172839506172839,0,0,0.06172839506172839,11.11111111111111,0)" xlink:href="#Q"/><use transform="matrix(0.06172839506172839,0,0,0.06172839506172839,23.45679012345679,0)" xlink:href="#I"/><use transform="matrix(0.06172839506172839,0,0,0.06172839506172839,35.80246913580247,0)" xlink:href="#N"/><use transform="matrix(0.06172839506172839,0,0,0.06172839506172839,46.91358024691358,0)" xlink:href="#S"/><use transform="matrix(0.06172839506172839,0,0,0.06172839506172839,53.086419753086425,0)" xlink:href="#M"/><use transform="matrix(0.06172839506172839,0,0,0.06172839506172839,65.4320987654321,0)" xlink:href="#I"/><use transform="matrix(0.06172839506172839,0,0,0.06172839506172839,77.77777777777779,0)" xlink:href="#S"/><use transform="matrix(0.06172839506172839,0,0,0.06172839506172839,83.95061728395062,0)" xlink:href="#N"/></g><g id="n"><use transform="matrix(0.06172839506172839,0,0,0.06172839506172839,0,0)" xlink:href="#X"/><use transform="matrix(0.06172839506172839,0,0,0.06172839506172839,14.814814814814813,0)" xlink:href="#M"/><use transform="matrix(0.06172839506172839,0,0,0.06172839506172839,27.160493827160494,0)" xlink:href="#I"/><use transform="matrix(0.06172839506172839,0,0,0.06172839506172839,39.50617283950617,0)" xlink:href="#ac"/><use transform="matrix(0.06172839506172839,0,0,0.06172839506172839,50.61728395061728,0)" xlink:href="#Q"/></g><g id="o"><use transform="matrix(0.06172839506172839,0,0,0.06172839506172839,0,0)" xlink:href="#P"/><use transform="matrix(0.06172839506172839,0,0,0.06172839506172839,12.345679012345679,0)" xlink:href="#K"/></g><g id="p"><use transform="matrix(0.06172839506172839,0,0,0.06172839506172839,0,0)" xlink:href="#P"/><use transform="matrix(0.06172839506172839,0,0,0.06172839506172839,12.345679012345679,0)" xlink:href="#M"/><use transform="matrix(0.06172839506172839,0,0,0.06172839506172839,24.691358024691358,0)" xlink:href="#P"/><use transform="matrix(0.06172839506172839,0,0,0.06172839506172839,37.03703703703704,0)" xlink:href="#Q"/><use transform="matrix(0.06172839506172839,0,0,0.06172839506172839,49.382716049382715,0)" xlink:href="#N"/></g><path fill="#333" d="M15-91v-56l181-69v40L49-119l147 57v40" id="ai"/><g id="q"><use transform="matrix(0.04938271604938272,0,0,0.04938271604938272,0,0)" xlink:href="#ai"/><use transform="matrix(0.04938271604938272,0,0,0.04938271604938272,10.370370370370372,0)" xlink:href="#ai"/></g><path fill="#333" d="M133-34C117-15 103 5 69 4 32 3 11-16 11-54c-1-60 55-63 116-61 1-26-3-47-28-47-18 1-26 9-28 27l-52-2c7-38 36-58 82-57s74 22 75 68l1 82c-1 14 12 18 25 15v27c-30 8-71 5-69-32zm-48 3c29 0 43-24 42-57-32 0-66-3-65 30 0 17 8 27 23 27" id="aj"/><path fill="#333" d="M190-63c-7 42-38 67-86 67-59 0-84-38-90-98-12-110 154-137 174-36l-49 2c-2-19-15-32-35-32-30 0-35 28-38 64-6 74 65 87 74 30" id="ak"/><path fill="#333" d="M185-48c-13 30-37 53-82 52C43 2 14-33 14-96s30-98 90-98c62 0 83 45 84 108H66c0 31 8 55 39 56 18 0 30-7 34-22zm-45-69c5-46-57-63-70-21-2 6-4 13-4 21h74" id="al"/><path fill="#333" d="M137-138c1-29-70-34-71-4 15 46 118 7 119 86 1 83-164 76-172 9l43-7c4 19 20 25 44 25 33 8 57-30 24-41C81-84 22-81 20-136c-2-80 154-74 161-7" id="am"/><g id="r"><use transform="matrix(0.04938271604938272,0,0,0.04938271604938272,0,0)" xlink:href="#aj"/><use transform="matrix(0.04938271604938272,0,0,0.04938271604938272,9.876543209876544,0)" xlink:href="#ak"/><use transform="matrix(0.04938271604938272,0,0,0.04938271604938272,19.75308641975309,0)" xlink:href="#ak"/><use transform="matrix(0.04938271604938272,0,0,0.04938271604938272,29.629629629629633,0)" xlink:href="#al"/><use transform="matrix(0.04938271604938272,0,0,0.04938271604938272,39.50617283950618,0)" xlink:href="#am"/><use transform="matrix(0.04938271604938272,0,0,0.04938271604938272,49.38271604938272,0)" xlink:href="#am"/></g><path fill="#333" d="M15-22v-40l146-57-146-57v-40l181 69v56" id="an"/><g id="s"><use transform="matrix(0.04938271604938272,0,0,0.04938271604938272,0,0)" xlink:href="#an"/><use transform="matrix(0.04938271604938272,0,0,0.04938271604938272,10.370370370370372,0)" xlink:href="#an"/></g><path fill="#333" d="M25-224v-37h50v37H25zM25 0v-190h50V0H25" id="ao"/><path fill="#333" d="M220-157c-53 9-28 100-34 157h-49v-107c1-27-5-49-29-50C55-147 81-57 75 0H25l-1-190h47c2 12-1 28 3 38 10-53 101-56 108 0 13-22 24-43 59-42 82 1 51 116 57 194h-49v-107c-1-25-5-48-29-50" id="ap"/><path fill="#333" d="M135-194c53 0 70 44 70 98 0 56-19 98-73 100-31 1-45-17-59-34 3 33 2 69 2 105H25l-1-265h48c2 10 0 23 3 31 11-24 29-35 60-35zM114-30c33 0 39-31 40-66 0-38-9-64-40-64-56 0-55 130 0 130" id="aq"/><path fill="#333" d="M110-194c64 0 96 36 96 99 0 64-35 99-97 99-61 0-95-36-95-99 0-62 34-99 96-99zm-1 164c35 0 45-28 45-65 0-40-10-65-43-65-34 0-45 26-45 65 0 36 10 65 43 65" id="ar"/><path fill="#333" d="M135-150c-39-12-60 13-60 57V0H25l-1-190h47c2 13-1 29 3 40 6-28 27-53 61-41v41" id="as"/><path fill="#333" d="M115-3C79 11 28 4 28-45v-112H4v-33h27l15-45h31v45h36v33H77v99c-1 23 16 31 38 25v30" id="at"/><g id="t"><use transform="matrix(0.04938271604938272,0,0,0.04938271604938272,0,0)" xlink:href="#ao"/><use transform="matrix(0.04938271604938272,0,0,0.04938271604938272,4.938271604938272,0)" xlink:href="#ap"/><use transform="matrix(0.04938271604938272,0,0,0.04938271604938272,20.74074074074074,0)" xlink:href="#aq"/><use transform="matrix(0.04938271604938272,0,0,0.04938271604938272,31.555555555555557,0)" xlink:href="#ar"/><use transform="matrix(0.04938271604938272,0,0,0.04938271604938272,42.370370370370374,0)" xlink:href="#as"/><use transform="matrix(0.04938271604938272,0,0,0.04938271604938272,49.283950617283956,0)" xlink:href="#at"/></g><path fill="#333" d="M85 4C-2 5 27-109 22-190h50c7 57-23 150 33 157 60-5 35-97 40-157h50l1 190h-47c-2-12 1-28-3-38-12 25-28 42-61 42" id="au"/><g id="u"><use transform="matrix(0.04938271604938272,0,0,0.04938271604938272,0,0)" xlink:href="#au"/><use transform="matrix(0.04938271604938272,0,0,0.04938271604938272,10.814814814814815,0)" xlink:href="#am"/><use transform="matrix(0.04938271604938272,0,0,0.04938271604938272,20.69135802469136,0)" xlink:href="#al"/></g><g id="v"><use transform="matrix(0.06172839506172839,0,0,0.06172839506172839,0,0)" xlink:href="#T"/><use transform="matrix(0.06172839506172839,0,0,0.06172839506172839,14.814814814814813,0)" xlink:href="#O"/><use transform="matrix(0.06172839506172839,0,0,0.06172839506172839,27.160493827160494,0)" xlink:href="#L"/><use transform="matrix(0.06172839506172839,0,0,0.06172839506172839,32.03703703703704,0)" xlink:href="#T"/><use transform="matrix(0.06172839506172839,0,0,0.06172839506172839,46.85185185185185,0)" xlink:href="#O"/><use transform="matrix(0.06172839506172839,0,0,0.06172839506172839,59.197530864197525,0)" xlink:href="#O"/><use transform="matrix(0.06172839506172839,0,0,0.06172839506172839,71.5432098765432,0)" xlink:href="#J"/><use transform="matrix(0.06172839506172839,0,0,0.06172839506172839,76.41975308641975,0)" xlink:href="#L"/><use transform="matrix(0.06172839506172839,0,0,0.06172839506172839,81.29629629629629,0)" xlink:href="#ac"/><use transform="matrix(0.06172839506172839,0,0,0.06172839506172839,92.4074074074074,0)" xlink:href="#M"/><use transform="matrix(0.06172839506172839,0,0,0.06172839506172839,104.75308641975309,0)" xlink:href="#S"/><use transform="matrix(0.06172839506172839,0,0,0.06172839506172839,110.92592592592592,0)" xlink:href="#L"/><use transform="matrix(0.06172839506172839,0,0,0.06172839506172839,115.80246913580247,0)" xlink:href="#Q"/><use transform="matrix(0.06172839506172839,0,0,0.06172839506172839,128.14814814814815,0)" xlink:href="#I"/></g><path fill="#333" d="M118-107v75H92v-75H18v-26h74v-75h26v75h74v26h-74" id="av"/><g id="w"><use transform="matrix(0.06172839506172839,0,0,0.06172839506172839,0,0)" xlink:href="#av"/><path fill="#333" d="M-1.1 1.54h21.35v1.63H-1.1z"/></g><path fill="#333" d="M87 75C49 33 22-17 22-94c0-76 28-126 65-167h31c-38 41-64 92-64 168S80 34 118 75H87" id="aw"/><path fill="#333" d="M33-154v-36h34v36H33zM33 0v-36h34V0H33" id="ax"/><g id="x"><use transform="matrix(0.06172839506172839,0,0,0.06172839506172839,0,0)" xlink:href="#R"/><use transform="matrix(0.06172839506172839,0,0,0.06172839506172839,18.456790123456788,0)" xlink:href="#M"/><use transform="matrix(0.06172839506172839,0,0,0.06172839506172839,30.80246913580247,0)" xlink:href="#L"/><use transform="matrix(0.06172839506172839,0,0,0.06172839506172839,35.67901234567901,0)" xlink:href="#I"/><use transform="matrix(0.06172839506172839,0,0,0.06172839506172839,48.02469135802469,0)" xlink:href="#aw"/><use transform="matrix(0.06172839506172839,0,0,0.06172839506172839,55.37037037037037,0)" xlink:href="#M"/><use transform="matrix(0.06172839506172839,0,0,0.06172839506172839,67.71604938271605,0)" xlink:href="#F"/><use transform="matrix(0.06172839506172839,0,0,0.06172839506172839,75.06172839506173,0)" xlink:href="#af"/><use transform="matrix(0.06172839506172839,0,0,0.06172839506172839,87.40740740740742,0)" xlink:href="#N"/><use transform="matrix(0.06172839506172839,0,0,0.06172839506172839,98.51851851851853,0)" xlink:href="#ax"/><path fill="#333" d="M-1.1 1.54h113.08v1.63H-1.12z"/></g><path fill="#333" d="M26 75v-336h71v23H56V52h41v23H26" id="ay"/><path fill="#333" d="M101-251c68 0 85 55 85 127S166 4 100 4C33 4 14-52 14-124c0-73 17-127 87-127zm-1 229c47 0 54-49 54-102s-4-102-53-102c-51 0-55 48-55 102 0 53 5 102 54 102" id="az"/><path fill="#333" d="M80-196l47-18 7 23-49 13 32 44-20 13-27-46-27 45-21-12 33-44-49-13 8-23 47 19-2-53h23" id="aA"/><path fill="#333" d="M3 75V52h41v-290H3v-23h71V75H3" id="aB"/><path fill="#333" d="M33-261c38 41 65 92 65 168S71 34 33 75H2C39 34 66-17 66-93S39-220 2-261h31" id="aC"/><g id="y"><use transform="matrix(0.06172839506172839,0,0,0.06172839506172839,0,0)" xlink:href="#aa"/><use transform="matrix(0.06172839506172839,0,0,0.06172839506172839,14.814814814814813,0)" xlink:href="#S"/><use transform="matrix(0.06172839506172839,0,0,0.06172839506172839,20.98765432098765,0)" xlink:href="#F"/><use transform="matrix(0.06172839506172839,0,0,0.06172839506172839,28.33333333333333,0)" xlink:href="#L"/><use transform="matrix(0.06172839506172839,0,0,0.06172839506172839,33.20987654320987,0)" xlink:href="#I"/><use transform="matrix(0.06172839506172839,0,0,0.06172839506172839,45.55555555555555,0)" xlink:href="#af"/><use transform="matrix(0.06172839506172839,0,0,0.06172839506172839,57.90123456790123,0)" xlink:href="#ay"/><use transform="matrix(0.06172839506172839,0,0,0.06172839506172839,64.07407407407406,0)" xlink:href="#az"/><use transform="matrix(0.06172839506172839,0,0,0.06172839506172839,76.41975308641975,0)" xlink:href="#G"/><use transform="matrix(0.06172839506172839,0,0,0.06172839506172839,82.59259259259258,0)" xlink:href="#G"/><use transform="matrix(0.06172839506172839,0,0,0.06172839506172839,88.76543209876542,0)" xlink:href="#G"/><use transform="matrix(0.06172839506172839,0,0,0.06172839506172839,94.93827160493825,0)" xlink:href="#aA"/><use transform="matrix(0.06172839506172839,0,0,0.06172839506172839,103.58024691358023,0)" xlink:href="#aB"/><use transform="matrix(0.06172839506172839,0,0,0.06172839506172839,109.75308641975306,0)" xlink:href="#aC"/><use transform="matrix(0.06172839506172839,0,0,0.06172839506172839,117.09876543209874,0)" xlink:href="#ax"/><path fill="#333" d="M-1.1 1.54h131.66v1.63H-1.1z"/></g><g id="z"><use transform="matrix(0.06172839506172839,0,0,0.06172839506172839,0,0)" xlink:href="#ab"/><use transform="matrix(0.06172839506172839,0,0,0.06172839506172839,11.11111111111111,0)" xlink:href="#Q"/><use transform="matrix(0.06172839506172839,0,0,0.06172839506172839,23.45679012345679,0)" xlink:href="#L"/><use transform="matrix(0.06172839506172839,0,0,0.06172839506172839,28.333333333333336,0)" xlink:href="#P"/><path fill="#333" d="M-1.1 1.54h42.9v1.63H-1.1z"/></g><g id="A"><use transform="matrix(0.06172839506172839,0,0,0.06172839506172839,0,0)" xlink:href="#E"/><use transform="matrix(0.06172839506172839,0,0,0.06172839506172839,12.345679012345679,0)" xlink:href="#M"/><use transform="matrix(0.06172839506172839,0,0,0.06172839506172839,24.691358024691358,0)" xlink:href="#N"/><use transform="matrix(0.06172839506172839,0,0,0.06172839506172839,35.80246913580247,0)" xlink:href="#K"/></g><path fill="#333" d="M18-100v-36l175-74v27L42-118l151 64v27" id="aD"/><g id="B"><use transform="matrix(0.06172839506172839,0,0,0.06172839506172839,0,0)" xlink:href="#aD"/><use transform="matrix(0.06172839506172839,0,0,0.06172839506172839,12.962962962962962,0)" xlink:href="#aD"/></g><g id="C"><use transform="matrix(0.06172839506172839,0,0,0.06172839506172839,0,0)" xlink:href="#M"/><use transform="matrix(0.06172839506172839,0,0,0.06172839506172839,12.345679012345679,0)" xlink:href="#E"/><use transform="matrix(0.06172839506172839,0,0,0.06172839506172839,24.691358024691358,0)" xlink:href="#N"/><use transform="matrix(0.06172839506172839,0,0,0.06172839506172839,35.80246913580247,0)" xlink:href="#S"/><use transform="matrix(0.06172839506172839,0,0,0.06172839506172839,41.97530864197531,0)" xlink:href="#F"/><use transform="matrix(0.06172839506172839,0,0,0.06172839506172839,49.32098765432099,0)" xlink:href="#M"/><use transform="matrix(0.06172839506172839,0,0,0.06172839506172839,61.666666666666664,0)" xlink:href="#ac"/><use transform="matrix(0.06172839506172839,0,0,0.06172839506172839,72.77777777777777,0)" xlink:href="#S"/></g><path fill="#333" d="M18-27v-27l151-64-151-65v-27l175 74v36" id="aE"/><g id="D"><use transform="matrix(0.06172839506172839,0,0,0.06172839506172839,0,0)" xlink:href="#aE"/><use transform="matrix(0.06172839506172839,0,0,0.06172839506172839,12.962962962962962,0)" xlink:href="#aE"/></g></defs></g></svg>